{"title":"Weather.Wars.2011.DVDRip.XviD-SPRiNTER","uid":6896066,"size":745672379,"categoryP":"video","categoryS":"movies","magnet":"?xt=urn:btih:f12f28442514b372bedad9aef3f6e4982c7e4e67&amp;dn=Weather.Wars.2011.DVDRip.XviD-SPRiNTER&amp;tr=udp%3A%2F%2Ftracker.openbittorrent.com%3A80&amp;tr=udp%3A%2F%2Fopen.demonii.com%3A1337&amp;tr=udp%3A%2F%2Ftracker.coppersurfer.tk%3A6969&amp;tr=udp%3A%2F%2Fexodus.desync.com%3A6969","seeders":1,"leechers":0,"uploader":"LegendET","files":5,"time":1324169124,"description":"[center][img]http://i1087.photobucket.com/albums/j472/hardboy911/kJ4bNM1P.jpg[/img]\n\n\n\nWeather.Wars.2011.DVDRip.XviD-SPRiNTER\n\n\nDate: 2011.12\n &lt;a href=&quot;\nhttp://www.imdb.com/title/tt1743375/&quot; rel=&quot;nofollow&quot; target=&quot;_NEW&quot;&gt;\nhttp://www.imdb.com/title/tt1743375/&lt;/a&gt;\n\n\n        Release notes\n\nEnjoy!\n\n\n        Details\n\nFormat                          : AVI\nFormat/Info                      : Audio Video Interleave\nFile size                        : 701 MiB\nDuration                        : 1h 22mn\nOverall bit rate mode            : Variable\nOverall bit rate                : 1 186 Kbps\nWriting application              : VirtualDubMod 1.5.10.2 (build 2540/release)\nWriting library                  : VirtualDubMod build 2540/release\n\nVideo\nID                              : 0\nFormat                          : MPEG-4 Visual\nFormat profile                  : Advanced Simple@L5\nFormat settings, BVOP            : 2\nFormat settings, QPel            : No\nFormat settings, GMC            : No warppoints\nFormat settings, Matrix          : Default (H.263)\nCodec ID                        : XVID\nCodec ID/Hint                    : XviD\nDuration                        : 1h 22mn\nBit rate                        : 1 034 Kbps\nWidth                            : 624 pixels\nHeight                          : 352 pixels\nDisplay aspect ratio            : 16:9\nFrame rate                      : 25.000 fps\nColor space                      : YUV\nChroma subsampling              : 4:2:0\nBit depth                        : 8 bits\nScan type                        : Progressive\nCompression mode                : Lossy\nBits/(Pixel*Frame)              : 0.188\nStream size                      : 611 MiB (87%)\nWriting library                  : XviD 61\n\nAudio\nID                              : 1\nFormat                          : MPEG Audio\nFormat version                  : Version 1\nFormat profile                  : Layer 3\nMode                            : Joint stereo\nMode extension                  : MS Stereo\nCodec ID                        : 55\nCodec ID/Hint                    : MP3\nDuration                        : 1h 22mn\nBit rate mode                    : Variable\nBit rate                        : 139 Kbps\nMinimum bit rate                : 128 Kbps\nChannel(s)                      : 2 channels\nSampling rate                    : 48.0 KHz\nCompression mode                : Lossy\nStream size                      : 82.3 MiB (12%)\nAlignment                        : Aligned on interleaves\nInterleave, duration            : 24 ms (0.60 video frame)\nInterleave, preload duration    : 474 ms\nWriting library                  : LAME3.95\nEncoding settings                : -m j -V 4 -q 3 -lowpass 18 --vbr-old -b 128\n[img]http://i1087.photobucket.com/albums/j472/hardboy911/sprinter-weatherwars2011avi_001387400.jpg[/img]\n[img]http://i1087.photobucket.com/albums/j472/hardboy911/sprinter-weatherwars2011avi_001602400.jpg[/img]\n[img]http://i1087.photobucket.com/albums/j472/hardboy911/sprinter-weatherwars2011avi_004174280.jpg[/img][/center]","torrent":{"xt":"urn:btih:f12f28442514b372bedad9aef3f6e4982c7e4e67","amp;dn":"Weather.Wars.2011.DVDRip.XviD-SPRiNTER","amp;tr":["udp%3A%2F%2Ftracker.openbittorrent.com%3A80","udp%3A%2F%2Fopen.demonii.com%3A1337","udp%3A%2F%2Ftracker.coppersurfer.tk%3A6969","udp%3A%2F%2Fexodus.desync.com%3A6969"],"infoHash":"f12f28442514b372bedad9aef3f6e4982c7e4e67","infoHashBuffer":{"type":"Buffer","data":[241,47,40,68,37,20,179,114,190,218,217,174,243,246,228,152,44,126,78,103]},"announce":[],"urlList":[]}}